<?xml version="1.0" encoding="UTF-8"?>
<svg xmlns="http://www.w3.org/2000/svg" xmlns:xlink="http://www.w3.org/1999/xlink" width="30pt" height="30pt" viewBox="0 0 30 30" version="1.1">
<g id="surface969355">
<path style=" stroke:none;fill-rule:nonzero;fill:rgb(100%,100%,100%);fill-opacity:1;" d="M 16.5 21 C 17.800781 21 19 22.199219 19 23.5 C 19 24.800781 17.800781 26 16.5 26 C 15.199219 26 14 24.800781 14 23.5 C 14 22.199219 15.199219 21 16.5 21 Z M 6.5 21 C 7.800781 21 9 22.199219 9 23.5 C 9 24.800781 7.800781 26 6.5 26 C 5.199219 26 4 24.800781 4 23.5 C 4 22.199219 5.199219 21 6.5 21 Z M 0 4.238281 C 3.3125 7.363281 7.1875 8.675781 14.25 8.675781 C 21.3125 8.675781 30 8.300781 30 10.550781 C 30 11.675781 28.8125 12.738281 26.6875 14.613281 C 24.625 16.488281 20.625 19.863281 20.625 19.863281 C 20.625 18.925781 26.3125 14.050781 26.3125 12.550781 C 26.3125 10.550781 18.035156 10.824219 14.347656 10.761719 C 8.035156 10.636719 2.9375 9.800781 0 4.238281 Z M 0 4.238281 "/>
</g>
</svg>
